<svg xmlns="http://www.w3.org/2000/svg" x="0px" y="0px"
width="100" height="100"
viewBox="0 0 48 48">
<path fill="#ffc107" d="M40,40H8c-0.7,0-1.4-0.4-1.7-1c-0.4-0.6-0.4-1.4,0-2l16-28c0.4-0.6,1-1,1.7-1s1.4,0.4,1.7,1l16,28 c0.4,0.6,0.4,1.4,0,2S40.7,40,40,40z"></path><path fill="#5d4037" d="M22,34.1c0-0.3,0-0.5,0.1-0.7c0.1-0.2,0.2-0.4,0.4-0.6c0.2-0.2,0.4-0.3,0.6-0.4c0.2-0.1,0.5-0.1,0.8-0.1 s0.6,0,0.8,0.1c0.3,0.1,0.5,0.2,0.6,0.4c0.2,0.2,0.3,0.4,0.4,0.6c0.1,0.2,0.1,0.5,0.1,0.7c0,0.3,0,0.5-0.1,0.7 c-0.1,0.2-0.2,0.4-0.4,0.6c-0.2,0.2-0.4,0.3-0.6,0.4C24.6,36,24.3,36,24,36c-0.3,0-0.6,0-0.8-0.1c-0.2-0.1-0.5-0.2-0.6-0.4 c-0.2-0.2-0.3-0.4-0.4-0.6C22,34.7,22,34.4,22,34.1 M25.5,30h-3l-0.4-12h3.8L25.5,30z"></path>
</svg>