<svg fill="#FD7E14" xmlns="http://www.w3.org/2000/svg"  viewBox="0 0 50 50" width="50px" height="50px"><path d="M 12 0 C 10.90625 0 10 0.90625 10 2 L 10 4 L 4 4 C 2.839844 4 2 4.839844 2 6 L 2 13 L 48 13 L 48 6 C 48 4.839844 47.160156 4 46 4 L 40 4 L 40 2 C 40 0.90625 39.09375 0 38 0 L 36 0 C 34.90625 0 34 0.90625 34 2 L 34 4 L 16 4 L 16 2 C 16 0.90625 15.09375 0 14 0 Z M 12 2 L 14 2 L 14 8 L 12 8 Z M 36 2 L 38 2 L 38 8 L 36 8 Z M 2 15 L 2 46 C 2 47.15625 2.839844 48 4 48 L 46 48 C 47.15625 48 48 47.15625 48 46 L 48 15 Z M 30.1875 30 L 37.8125 30 C 38.46875 30 39 30.53125 39 31.1875 L 39 38.8125 C 39 39.46875 38.46875 40 37.8125 40 L 30.1875 40 C 29.53125 40 29 39.46875 29 38.8125 L 29 31.1875 C 29 30.53125 29.53125 30 30.1875 30 Z"/></svg>